<?xml version="1.0" encoding="utf-8"?>
<svg id="master-artboard" viewBox="0 0 1400 980" version="1.1" xmlns="http://www.w3.org/2000/svg" x="0px" y="0px" style="enable-background:new 0 0 1400 980;" width="1400px" height="980px">

<path d="M 0 0 H 1400 V 980 H 0 V 0 Z" class="st0" style="fill: rgb(255, 255, 255);"/>
<path class="st1" d="M167.1,256.6c-56.6,98-155.6-73.5-42.4-73.5c-113.1,0-14.1-171.5,42.4-73.5c-56.6-98,141.4-98,84.8,0&#10;&#9;c56.6-98,155.6,73.5,42.4,73.5c113.1,0,14.1,171.5-42.4,73.5C308.5,354.6,110.5,354.6,167.1,256.6z" style="fill: rgb(65, 64, 66);"/>
<path class="st1" d="M496.2,251.5c-37.7,91.1-131.2-2.3-40-40c-91.1,37.7-91.1-94.4,0-56.6c-91.1-37.7,2.3-131.2,40-40&#10;&#9;c-37.7-91.1,94.4-91.1,56.6,0c37.7-91.1,131.2,2.3,40,40c91.1-37.7,91.1,94.4,0,56.6c91.1,37.7-2.3,131.2-40,40&#10;&#9;C590.6,342.6,458.4,342.6,496.2,251.5z" style="fill: rgb(65, 64, 66);"/>
<path class="st1" d="M814.9,244c-47.7,81.2-106.3,22.6-25.1-25.1c-92.3,36.5-98.6,21.4-7.5-18c-91.1,23.7-91.1-59.1,0-35.5&#10;&#9;c-91.1-39.4-84.9-54.6,7.5-18c-81.2-47.7-22.6-106.3,25.1-25.1c-36.5-92.3-21.4-98.6,18-7.5c-23.7-91.1,59.1-91.1,35.5,0&#10;&#9;c39.4-91.1,54.6-84.9,18,7.5c47.7-81.2,106.3-22.6,25.1,25.1c92.3-36.5,98.6-21.4,7.5,18c91.1-23.7,91.1,59.1,0,35.5&#10;&#9;c91.1,39.4,84.9,54.6-7.5,18c81.2,47.7,22.6,106.3-25.1,25.1c36.5,92.3,21.4,98.6-18,7.5c23.7,91.1-59.1,91.1-35.5,0&#10;&#9;C793.5,342.6,778.4,336.3,814.9,244z" style="fill: rgb(65, 64, 66);"/>
<path class="st1" d="M161.2,532.1C96.8,596.6,96.8,596.6,161.2,532.1c-94.3,34.5-111.2-6-20-48.3c-91.1,0-91.1,0,0,0&#10;&#9;c-91.1-42.3-74.3-82.9,20-48.3c-64.4-64.4-64.4-64.4,0,0c-34.5-94.3,6-111.2,48.3-20c0-91.1,0-91.1,0,0c42.3-91.1,82.9-74.3,48.3,20&#10;&#9;c64.4-64.4,64.4-64.4,0,0c94.3-34.5,111.2,6,20,48.3c91.1,0,91.1,0,0,0c91.1,42.3,74.3,82.9-20,48.3c64.4,64.4,64.4,64.4,0,0&#10;&#9;c34.5,94.3-6,111.2-48.3,20c0,91.1,0,91.1,0,0C167.2,643.3,126.7,626.5,161.2,532.1z" style="fill: rgb(65, 64, 66);"/>
<path class="st1" d="M482.4,538.4c-56.1,72.8-85.3,43.6-12.5-12.5c-93.3,35.5-104.9,7.7-13.8-33.2c-91.1,11.8-91.1-29.5,0-17.7&#10;&#9;c-91.1-40.9-79.6-68.7,13.8-33.2c-72.8-56.1-43.6-85.3,12.5-12.5c-35.5-93.3-7.7-104.9,33.2-13.8c-11.8-91.1,29.5-91.1,17.7,0&#10;&#9;c40.9-91.1,68.7-79.6,33.2,13.8c56.1-72.8,85.3-43.6,12.5,12.5c93.3-35.5,104.9-7.7,13.8,33.2c91.1-11.8,91.1,29.5,0,17.7&#10;&#9;c91.1,40.9,79.6,68.7-13.8,33.2c72.8,56.1,43.6,85.3-12.5,12.5c35.5,93.3,7.7,104.9-33.2,13.8c11.8,91.1-29.5,91.1-17.7,0&#10;&#9;C474.8,643.3,446.9,631.7,482.4,538.4z" style="fill: rgb(65, 64, 66);"/>
<path class="st1" d="M820.1,549.9c-40.8,88.1-123.6,5.3-35.5-35.5c-91.5,37.4-93.4,32.8-2.3-5.5c-91.1,33.5-91.1-83.7,0-50.2&#10;&#9;c-91.1-38.3-89.2-42.9,2.3-5.5c-88.1-40.8-5.3-123.6,35.5-35.5c-37.4-91.5-32.8-93.4,5.5-2.3c-33.5-91.1,83.7-91.1,50.2,0&#10;&#9;c38.3-91.1,42.9-89.2,5.5,2.3c40.8-88.1,123.6-5.3,35.5,35.5c91.5-37.4,93.4-32.8,2.3,5.5c91.1-33.5,91.1,83.7,0,50.2&#10;&#9;c91.1,38.3,89.2,42.9-2.3,5.5c88.1,40.8,5.3,123.6-35.5,35.5c37.4,91.5,32.8,93.4-5.5,2.3c33.5,91.1-83.7,91.1-50.2,0&#10;&#9;C787.3,643.3,782.7,641.4,820.1,549.9z" style="fill: rgb(65, 64, 66);"/>
<path class="st1" d="M1157.8,241.9c-43.5,78.4-74.2,56-13.2-9.6c-77.7,53.5-90,36.5-15.1-20.8c-81.3,37.8-93,1.7-5-15.5&#10;&#9;c-94.3-2.4-94.3-23.4,0-25.7c-88-17.2-76.2-53.3,5-15.5c-74.9-57.3-62.5-74.4,15.1-20.8c-61.1-65.6-30.3-87.9,13.2-9.6&#10;&#9;c-26.9-90.4-6.9-96.9,24.5-8c-10.9-89,27.1-89,16.3,0c31.4-89,51.4-82.5,24.5,8c43.5-78.4,74.2-56,13.2,9.6&#10;&#9;c77.7-53.5,90-36.5,15.1,20.8c81.3-37.8,93-1.7,5,15.5c94.3,2.4,94.3,23.4,0,25.7c88,17.2,76.2,53.3-5,15.5&#10;&#9;c74.9,57.3,62.5,74.4-15.1,20.8c61.1,65.6,30.3,87.9-13.2,9.6c26.9,90.4,6.9,96.9-24.5,8c10.9,89-27.1,89-16.3,0&#10;&#9;C1150.9,338.8,1130.9,332.3,1157.8,241.9z" style="fill: rgb(65, 64, 66);"/>
<path class="st1" d="M1157.1,586.5c-16.7,51.3-97.7-7.5-54-39.2c-43.7,31.7-74.6-63.5-20.6-63.5c-54,0-23.1-95.2,20.6-63.5&#10;&#9;c-43.7-31.7,37.3-90.6,54-39.2c-16.7-51.3,83.4-51.3,66.7,0c16.7-51.3,97.7,7.5,54,39.2c43.7-31.7,74.6,63.5,20.6,63.5&#10;&#9;c54,0,23.1,95.2-20.6,63.5c43.7,31.7-37.3,90.6-54,39.2C1240.5,637.8,1140.4,637.8,1157.1,586.5z" style="fill: rgb(65, 64, 66);"/>
<path class="st1" d="M169.3,890.1c-20.1,44.8-68.9,9.3-32.5-23.6c-45.1,26.6-51.6,17.6-12.4-17.1c-42.6,24.4-61.2-33-12.4-38.3&#10;&#9;c-52.1-5-52.1-16.1,0-21.1c-48.8-5.3-30.1-62.7,12.4-38.3c-39.2-34.7-32.7-43.7,12.4-17.1c-36.4-33,12.4-68.4,32.5-23.6&#10;&#9;c-11.3-51.1-0.8-54.6,20.1-6.5c-10.1-48,50.3-48,40.2,0c20.9-48,31.4-44.6,20.1,6.5c20.1-44.8,68.9-9.3,32.5,23.6&#10;&#9;c45.1-26.6,51.6-17.6,12.4,17.1c42.6-24.4,61.2,33,12.4,38.3c52.1,5,52.1,16.1,0,21.1c48.8,5.3,30.1,62.7-12.4,38.3&#10;&#9;c39.2,34.7,32.7,43.7-12.4,17.1c36.4,33-12.4,68.4-32.5,23.6c11.3,51.1,0.8,54.6-20.1,6.5c10.1,48-50.3,48-40.2,0&#10;&#9;C168.5,944.7,158,941.3,169.3,890.1z" style="fill: rgb(65, 64, 66);"/>
<path class="st1" d="M521.7,808.3c-58.2,159.8-137.7,102-3.7-2.7c-137.4,102.2-140,98.7-0.3-0.5c-141,95.1-171.3,1.6-1.4-4.3&#10;&#9;c-171.3,1.9-171.3-2.5,0-0.6c-169.9-6-139.6-99.4,1.4-4.3c-139.7-99.1-137.1-102.7,0.3-0.5c-134-104.7-54.5-162.4,3.7-2.7&#10;&#9;c-54.7-162.3-50.6-163.6,0.6-0.2c-46.8-163.5,51.4-163.5,4.6,0c51.1-163.5,55.3-162.1,0.6,0.2c58.2-159.8,137.7-102,3.7,2.7&#10;&#9;c137.4-102.2,140-98.7,0.3,0.5c141-95.1,171.3-1.6,1.4,4.3c171.3-1.9,171.3,2.5,0,0.6c169.9,6,139.6,99.4-1.4,4.3&#10;&#9;c139.7,99.1,137.1,102.7-0.3,0.5c134,104.7,54.5,162.4-3.7,2.7c54.7,162.3,50.6,163.6-0.6,0.2c46.8,163.5-51.4,163.5-4.6,0&#10;&#9;C471.1,972,467,970.6,521.7,808.3z" style="fill: rgb(65, 64, 66);"/>
<path class="st1" d="M846.6,807.6c-84,145-113.3,123.7-1.4-1c-132.3,109.9-147.4,89.1-2-2.8c-153.2,68-164.4,33.5-0.5-1.6&#10;&#9;c-171.6,11.2-171.6-14.6,0-3.4c-163.9-35.1-152.7-69.5,0.5-1.6c-145.4-91.9-130.3-112.7,2-2.8c-112-124.7-82.6-146,1.4-1&#10;&#9;c-63.7-159.8-39.2-167.7,3.2-1.1c-17.3-166.7,19-166.7,1.7,0c42.4-166.7,66.9-158.7,3.2,1.1c84-145,113.3-123.7,1.4,1&#10;&#9;c132.3-109.9,147.4-89.1,2,2.8c153.2-68,164.4-33.5,0.5,1.6c171.6-11.2,171.6,14.6,0,3.4c163.9,35.1,152.7,69.5-0.5,1.6&#10;&#9;c145.4,91.9,130.3,112.7-2,2.8c112,124.7,82.6,146-1.4,1c63.7,159.8,39.2,167.7-3.2,1.1c17.3,166.7-19,166.7-1.7,0&#10;&#9;C807.4,975.4,782.9,967.4,846.6,807.6z" style="fill: rgb(65, 64, 66);"/>
<path class="st1" d="M1187.6,809.3c-58.3,179.4-157.2,107.6-4.6-3.3c-152.6,110.9-190.4-5.4-1.8-5.4c-188.7,0-150.9-116.3,1.8-5.4&#10;&#9;c-152.6-110.9-53.7-182.7,4.6-3.3c-58.3-179.4,64-179.4,5.7,0c58.3-179.4,157.2-107.6,4.6,3.3c152.6-110.9,190.4,5.4,1.8,5.4&#10;&#9;c188.7,0,150.9,116.3-1.8,5.4c152.6,110.9,53.7,182.7-4.6,3.3C1251.6,988.7,1129.3,988.7,1187.6,809.3z" style="fill: rgb(65, 64, 66);"/>

</svg>